<svg xmlns="http://www.w3.org/2000/svg" viewBox="0 0 24 24" fill="currentColor" role="img"><path d="M12 13.6a5.3 5.3 0 0 1 4.64 3.02l-1.28.76-.27-.34A4 4 0 0 0 12 15.4a4.1 4.1 0 0 0-3.1 1.64l-.26.35-1.28-.78.28-.48A5.3 5.3 0 0 1 12 13.6M6.97 7.85 11.09 9l.23.06-.37 1.09q.05.18.05.38c0 .88-.67 1.48-1.5 1.48S8 11.4 8 10.52q0-.31.1-.58L6.49 9.3l-.22-.09.48-1.42zm10.77 1.36-.22.09-1.63.64q.1.26.11.58c0 .88-.67 1.48-1.5 1.48s-1.5-.6-1.5-1.48q0-.2.05-.38l-.37-1.09.23-.06 4.12-1.14.23-.06z"/><path d="M12 2a10 10 0 1 1 0 20 10 10 0 0 1 0-20m0 2a8 8 0 1 0 0 16 8 8 0 0 0 0-16"/></svg>