<svg xmlns="http://www.w3.org/2000/svg" viewBox="0 0 24 24" fill="currentColor" role="img"><path d="M12 12V2L3.5 7z"/><path d="m3.5 7 8.5 5-8.5 5z"/><path d="m12 22-3.63-2.13L12 16.24zm-6.3-3.7L3.5 17l8.5-5z"/><path d="M20.5 17 12 22v-5.76l2.67-2.67z"/><path d="m20.5 17-5.83-3.43 5.83-5.83z"/><path d="M18.3 5.7 12 12V2z"/><path d="m22.7 2.7-20 20-1.4-1.4 2.78-2.8A10.25 10.25 0 0 1 18.5 4.08l2.78-2.78zM12 3.76a8.25 8.25 0 0 0-6.5 13.33L17.08 5.5A8.2 8.2 0 0 0 12 3.75"/><path d="M21.05 7.19A10.25 10.25 0 0 1 7.2 21.05l1.5-1.5q1.53.69 3.31.7a8.25 8.25 0 0 0 7.55-11.56z"/></svg>