<svg xmlns="http://www.w3.org/2000/svg" viewBox="0 0 356.7 71.92"><defs><style>.cls-1,.cls-2{fill:#25728e;}.cls-2{opacity:0.6;}</style></defs><title>Asset 6</title><g id="Layer_2" data-name="Layer 2"><g id="_5" data-name="5"><path class="cls-1" d="M108.24,29.37a21.06,21.06,0,0,0-6.56-2A21.14,21.14,0,0,1,97,26.19a5.57,5.57,0,0,1-2.38-1.67,3.56,3.56,0,0,1-.7-2.21,3.68,3.68,0,0,1,1.83-3.13,8.52,8.52,0,0,1,4.88-1.25,11,11,0,0,1,4.2.75A8.53,8.53,0,0,1,108,21a2.45,2.45,0,0,0,1.46.8,2.25,2.25,0,0,0,1.53-.25,1.8,1.8,0,0,0,.88-1.27,1.92,1.92,0,0,0-.44-1.5,11.73,11.73,0,0,0-4.35-3.43,14.77,14.77,0,0,0-6.39-1.28,15.58,15.58,0,0,0-5.49.94,9,9,0,0,0-4,2.83,7.3,7.3,0,0,0-1.5,4.71,6.72,6.72,0,0,0,2.6,5.26c1.74,1.47,4.47,2.51,8.2,3.1a15.92,15.92,0,0,1,6.2,2,3.87,3.87,0,0,1,1.88,3.29,4.33,4.33,0,0,1-1.88,3.41q-1.83,1.41-5.92,1.41A13.42,13.42,0,0,1,96,40.25a8.52,8.52,0,0,1-3.52-2.38,2.15,2.15,0,0,0-1.38-.72,2.23,2.23,0,0,0-1.61.44A2.29,2.29,0,0,0,88.61,39a1.78,1.78,0,0,0,.5,1.5,12.19,12.19,0,0,0,5.21,3.32A19.71,19.71,0,0,0,100.8,45,16.05,16.05,0,0,0,107,43.85a10.05,10.05,0,0,0,4.21-3.07,7.23,7.23,0,0,0,1.52-4.57,7.35,7.35,0,0,0-1-3.79A8.54,8.54,0,0,0,108.24,29.37Z"/><path class="cls-1" d="M143.77,14.56a1.81,1.81,0,0,0-2.66,1l-10.3,22.72L120,15.5a1.89,1.89,0,0,0-1.11-1.08,2.28,2.28,0,0,0-2.65,1.24,1.89,1.89,0,0,0,.11,1.55L128.71,42.8a.08.08,0,0,0,0,0L123.22,55a1.78,1.78,0,0,0,1.06,2.66,2.62,2.62,0,0,0,1,.22,1.76,1.76,0,0,0,1.61-1.27l17.94-39.43A1.71,1.71,0,0,0,143.77,14.56Z"/><path class="cls-1" d="M171.79,15.69a14.85,14.85,0,0,0-7-1.63,13.52,13.52,0,0,0-6.54,1.58,12.68,12.68,0,0,0-3.54,2.8V16.55A2.14,2.14,0,0,0,154.1,15a2.07,2.07,0,0,0-1.53-.58A2.1,2.1,0,0,0,151,15a2.14,2.14,0,0,0-.59,1.58v26A2,2,0,0,0,151,44.1a2.1,2.1,0,0,0,1.57.58,2.07,2.07,0,0,0,1.53-.58,2,2,0,0,0,.58-1.52V26.19A7.08,7.08,0,0,1,156,22a8.7,8.7,0,0,1,3.46-2.88,12,12,0,0,1,10,.06,8.29,8.29,0,0,1,3.55,3.32,11.12,11.12,0,0,1,1.3,5.65v14.4a2,2,0,0,0,.61,1.49,2.07,2.07,0,0,0,1.55.61,2.08,2.08,0,0,0,2.1-2.1V28.18a15.33,15.33,0,0,0-1.8-7.7A12,12,0,0,0,171.79,15.69Z"/><path class="cls-1" d="M201.25,40.42h-1.49a5.55,5.55,0,0,1-4.27-1.8A6.54,6.54,0,0,1,193.83,34V19.21h6.26a1.93,1.93,0,0,0,1.38-.53,1.72,1.72,0,0,0,.56-1.3,1.82,1.82,0,0,0-.56-1.36,1.93,1.93,0,0,0-1.38-.52h-6.26V6.91a2.1,2.1,0,0,0-.61-1.55,2.13,2.13,0,0,0-1.55-.61,2,2,0,0,0-1.52.61,2.16,2.16,0,0,0-.58,1.55V15.5H186a1.93,1.93,0,0,0-1.39.52,1.81,1.81,0,0,0-.55,1.36,1.71,1.71,0,0,0,.55,1.3,1.94,1.94,0,0,0,1.39.53h3.6V34a11.15,11.15,0,0,0,1.33,5.51,9.78,9.78,0,0,0,8.86,5.18h1.16a2.42,2.42,0,0,0,1.66-.58,1.93,1.93,0,0,0,.67-1.52,2.2,2.2,0,0,0-.56-1.55A1.85,1.85,0,0,0,201.25,40.42Z"/><path class="cls-1" d="M231.54,15.69a14.85,14.85,0,0,0-7-1.63A13.45,13.45,0,0,0,218,15.64a12.72,12.72,0,0,0-3.55,2.8V3.59A2.14,2.14,0,0,0,213.85,2a2.1,2.1,0,0,0-1.52-.58,2.16,2.16,0,0,0-1.58.58,2.14,2.14,0,0,0-.58,1.58v39a2,2,0,0,0,.58,1.52,2.12,2.12,0,0,0,1.58.58,2,2,0,0,0,2.1-2.1V26.19A7.08,7.08,0,0,1,215.7,22a8.73,8.73,0,0,1,3.47-2.88,12,12,0,0,1,10,.06,8.29,8.29,0,0,1,3.55,3.32,11.12,11.12,0,0,1,1.3,5.65v14.4a2,2,0,0,0,.61,1.49,2.07,2.07,0,0,0,1.55.61,2.08,2.08,0,0,0,2.1-2.1V28.18a15.33,15.33,0,0,0-1.8-7.7A12,12,0,0,0,231.54,15.69Z"/><path class="cls-1" d="M267.9,16a13.84,13.84,0,0,0-7.34-1.91,14.17,14.17,0,0,0-7.53,2,13.93,13.93,0,0,0-5.12,5.45,16.66,16.66,0,0,0-1.86,8,16,16,0,0,0,2,8A14.19,14.19,0,0,0,253.44,43a16.07,16.07,0,0,0,13.38.94,15.11,15.11,0,0,0,4.65-2.57,1.6,1.6,0,0,0,.64-1.33,2.05,2.05,0,0,0-.75-1.44,2,2,0,0,0-1.33-.41,2.19,2.19,0,0,0-1.38.52,10.09,10.09,0,0,1-3.24,1.75,12.4,12.4,0,0,1-4,.69,11.37,11.37,0,0,1-5.87-1.5,10.72,10.72,0,0,1-4-4.09,11.35,11.35,0,0,1-1.4-4.6h22.36a2,2,0,0,0,1.44-.53,1.85,1.85,0,0,0,.55-1.41,16.69,16.69,0,0,0-1.72-7.7A13,13,0,0,0,267.9,16ZM250.2,27.4a12.39,12.39,0,0,1,1.14-3.85A10,10,0,0,1,255,19.43a10.19,10.19,0,0,1,5.54-1.5,9.7,9.7,0,0,1,5.35,1.44,9.56,9.56,0,0,1,3.46,4,12.12,12.12,0,0,1,1.08,4Z"/><path class="cls-1" d="M299.69,29.37a21.21,21.21,0,0,0-6.57-2,21.14,21.14,0,0,1-4.73-1.21A5.57,5.57,0,0,1,286,24.52a3.56,3.56,0,0,1-.7-2.21,3.68,3.68,0,0,1,1.83-3.13A8.55,8.55,0,0,1,292,17.93a11,11,0,0,1,4.2.75A8.53,8.53,0,0,1,299.44,21a2.45,2.45,0,0,0,1.46.8,2.25,2.25,0,0,0,1.53-.25,1.8,1.8,0,0,0,.88-1.27,1.92,1.92,0,0,0-.44-1.5,11.73,11.73,0,0,0-4.35-3.43,14.77,14.77,0,0,0-6.39-1.28,15.62,15.62,0,0,0-5.49.94,9,9,0,0,0-4,2.83,7.3,7.3,0,0,0-1.5,4.71,6.72,6.72,0,0,0,2.6,5.26c1.74,1.47,4.47,2.51,8.2,3.1a15.92,15.92,0,0,1,6.2,2,3.88,3.88,0,0,1,1.89,3.29,4.37,4.37,0,0,1-1.89,3.41q-1.83,1.41-5.92,1.41a13.46,13.46,0,0,1-4.85-.83,8.42,8.42,0,0,1-3.51-2.38,2.2,2.2,0,0,0-1.39-.72,2.23,2.23,0,0,0-1.61.44,2.29,2.29,0,0,0-.83,1.44,1.81,1.81,0,0,0,.5,1.5,12.19,12.19,0,0,0,5.21,3.32A19.71,19.71,0,0,0,292.24,45a16.05,16.05,0,0,0,6.17-1.11,10.05,10.05,0,0,0,4.21-3.07,7.23,7.23,0,0,0,1.52-4.57,7.35,7.35,0,0,0-1-3.79A8.51,8.51,0,0,0,299.69,29.37Z"/><path class="cls-1" d="M314.55,2.59a3.11,3.11,0,0,0-2.13.81,2.74,2.74,0,0,0-.91,2.18,2.93,2.93,0,0,0,.88,2.16,2.86,2.86,0,0,0,2.11.89,2.91,2.91,0,0,0,2.16-.89,2.93,2.93,0,0,0,.88-2.16,2.74,2.74,0,0,0-.91-2.18A3,3,0,0,0,314.55,2.59Z"/><path class="cls-1" d="M314.55,14.39A2.1,2.1,0,0,0,313,15a2.14,2.14,0,0,0-.59,1.58v26A2.13,2.13,0,0,0,313,44.1a2.1,2.1,0,0,0,1.57.58,2.07,2.07,0,0,0,1.53-.58,2.16,2.16,0,0,0,.58-1.58v-26a2.18,2.18,0,0,0-.58-1.58A2.07,2.07,0,0,0,314.55,14.39Z"/><path class="cls-1" d="M354.65,21.59a14.51,14.51,0,0,0-5.46-5.48,15.53,15.53,0,0,0-7.89-2,15.69,15.69,0,0,0-7.92,2,14.49,14.49,0,0,0-5.48,5.48,15.74,15.74,0,0,0-2,8,15.63,15.63,0,0,0,2,7.92A14.52,14.52,0,0,0,333.38,43a15.79,15.79,0,0,0,7.92,2,15.62,15.62,0,0,0,7.89-2,14.66,14.66,0,0,0,5.48-5.49,15.46,15.46,0,0,0,2-7.92A16.19,16.19,0,0,0,354.65,21.59Zm-3.6,13.9a10.69,10.69,0,0,1-4,4.1,11.88,11.88,0,0,1-11.52,0,10.81,10.81,0,0,1-4-4.1,11.85,11.85,0,0,1-1.47-5.93,12,12,0,0,1,1.47-5.95,10.75,10.75,0,0,1,4-4.13,11.88,11.88,0,0,1,11.52,0,10.63,10.63,0,0,1,4,4.13,12.18,12.18,0,0,1,1.44,5.95A12.05,12.05,0,0,1,351.05,35.49Z"/><path class="cls-1" d="M51.84,30a2,2,0,0,1,2.77,1.13A30.06,30.06,0,0,1,.25,56.49a2,2,0,0,1,.93-2.82Z"/><path class="cls-2" d="M8.8,41.88A2,2,0,0,1,6,40.76,30.07,30.07,0,0,1,60.39,15.43a2,2,0,0,1-.93,2.83Z"/><path class="cls-1" d="M159.7,71.79l-1.24-3.18h-4l-1.23,3.18h-1.17l3.95-10h1l3.93,10Zm-1.6-4.23-1.16-3.1a13.61,13.61,0,0,1-.47-1.44,11.87,11.87,0,0,1-.43,1.44l-1.18,3.1Z"/><path class="cls-1" d="M174.71,71.79h-1.33l-5.46-8.39h-.06c.08,1,.11,1.89.11,2.71v5.68H166.9v-10h1.31l5.45,8.36h.06c0-.13,0-.52-.07-1.19s0-1.15,0-1.43V61.79h1.09Z"/><path class="cls-1" d="M190.33,71.79v-10h1.16v10Z"/><path class="cls-1" d="M205.19,64.7a2.8,2.8,0,0,1-1,2.34,4.73,4.73,0,0,1-3,.82H200v3.93h-1.16v-10h2.59Q205.19,61.79,205.19,64.7ZM200,66.86h1a3.92,3.92,0,0,0,2.24-.5,1.84,1.84,0,0,0,.69-1.6,1.75,1.75,0,0,0-.65-1.48,3.42,3.42,0,0,0-2-.48H200Z"/><path class="cls-1" d="M217.54,69.13a2.45,2.45,0,0,1-.95,2.05,4.12,4.12,0,0,1-2.6.74,6.45,6.45,0,0,1-2.74-.46V70.34a6.76,6.76,0,0,0,1.34.41,7.19,7.19,0,0,0,1.44.15,2.86,2.86,0,0,0,1.75-.44,1.44,1.44,0,0,0,.59-1.22,1.55,1.55,0,0,0-.21-.85,1.88,1.88,0,0,0-.7-.62,9.67,9.67,0,0,0-1.48-.63A4.93,4.93,0,0,1,212,66a2.64,2.64,0,0,1-.6-1.79,2.23,2.23,0,0,1,.87-1.84,3.66,3.66,0,0,1,2.3-.68,6.67,6.67,0,0,1,2.74.55l-.36,1a6.16,6.16,0,0,0-2.41-.52,2.37,2.37,0,0,0-1.44.39,1.3,1.3,0,0,0-.52,1.1,1.71,1.71,0,0,0,.19.86,1.74,1.74,0,0,0,.65.6,7.71,7.71,0,0,0,1.39.62,5.38,5.38,0,0,1,2.16,1.2A2.34,2.34,0,0,1,217.54,69.13Z"/><path class="cls-1" d="M232.88,66.78a5.51,5.51,0,0,1-1.21,3.77,4.9,4.9,0,0,1-6.78,0,5.54,5.54,0,0,1-1.2-3.81,5.46,5.46,0,0,1,1.2-3.78,4.34,4.34,0,0,1,3.42-1.35A4.26,4.26,0,0,1,231.67,63,5.49,5.49,0,0,1,232.88,66.78Zm-8,0a4.74,4.74,0,0,0,.86,3.07,3.09,3.09,0,0,0,2.52,1.05,3,3,0,0,0,2.5-1,4.79,4.79,0,0,0,.85-3.08,4.77,4.77,0,0,0-.84-3.06,3,3,0,0,0-2.5-1,3.09,3.09,0,0,0-2.53,1A4.75,4.75,0,0,0,224.92,66.78Z"/><path class="cls-1" d="M245.37,69.13a2.43,2.43,0,0,1-1,2.05,4.07,4.07,0,0,1-2.59.74,6.45,6.45,0,0,1-2.74-.46V70.34a6.76,6.76,0,0,0,1.34.41,7,7,0,0,0,1.44.15,2.86,2.86,0,0,0,1.75-.44,1.43,1.43,0,0,0,.58-1.22,1.55,1.55,0,0,0-.2-.85,2,2,0,0,0-.7-.62,9.88,9.88,0,0,0-1.49-.63,4.88,4.88,0,0,1-2-1.18,2.64,2.64,0,0,1-.6-1.79,2.23,2.23,0,0,1,.87-1.84,3.64,3.64,0,0,1,2.3-.68,6.71,6.71,0,0,1,2.74.55l-.36,1a6.16,6.16,0,0,0-2.41-.52,2.33,2.33,0,0,0-1.44.39,1.3,1.3,0,0,0-.52,1.1,1.71,1.71,0,0,0,.19.86,1.78,1.78,0,0,0,.64.6,8.23,8.23,0,0,0,1.4.62,5.45,5.45,0,0,1,2.16,1.2A2.38,2.38,0,0,1,245.37,69.13Z"/><path class="cls-1" d="M264.57,62.69a3.27,3.27,0,0,0-2.6,1.09,5.34,5.34,0,0,0,0,6,3.26,3.26,0,0,0,2.62,1.07,8.59,8.59,0,0,0,2.38-.38v1a7.3,7.3,0,0,1-2.56.39A4.32,4.32,0,0,1,261,70.58a5.5,5.5,0,0,1-1.2-3.8,5.94,5.94,0,0,1,.58-2.71A4.08,4.08,0,0,1,262,62.28a5,5,0,0,1,2.56-.63,6.22,6.22,0,0,1,2.75.57l-.49,1A5.37,5.37,0,0,0,264.57,62.69Z"/><path class="cls-1" d="M282.42,66.78a5.56,5.56,0,0,1-1.21,3.77,4.92,4.92,0,0,1-6.79,0,5.54,5.54,0,0,1-1.2-3.81A5.46,5.46,0,0,1,274.43,63a4.34,4.34,0,0,1,3.42-1.35A4.27,4.27,0,0,1,281.21,63,5.49,5.49,0,0,1,282.42,66.78Zm-8,0a4.68,4.68,0,0,0,.87,3.07,3.07,3.07,0,0,0,2.51,1.05,3,3,0,0,0,2.51-1,4.79,4.79,0,0,0,.85-3.08,4.71,4.71,0,0,0-.85-3.06,3,3,0,0,0-2.49-1,3.09,3.09,0,0,0-2.53,1A4.69,4.69,0,0,0,274.45,66.78Z"/><path class="cls-1" d="M293.69,71.79l-3.39-8.86h-.06c.07.7.1,1.53.1,2.5v6.36h-1.07v-10H291L294.18,70h.06l3.19-8.25h1.74v10H298V65.35c0-.74,0-1.54.1-2.41H298l-3.41,8.85Z"/><path class="cls-1" d="M312.86,64.7a2.8,2.8,0,0,1-1,2.34,4.73,4.73,0,0,1-3,.82h-1.17v3.93h-1.16v-10h2.59Q312.86,61.79,312.86,64.7Zm-5.17,2.16h1a3.9,3.9,0,0,0,2.24-.5,1.84,1.84,0,0,0,.69-1.6,1.75,1.75,0,0,0-.65-1.48,3.42,3.42,0,0,0-2-.48h-1.3Z"/><path class="cls-1" d="M325.86,71.79l-1.25-3.18h-4l-1.23,3.18H318.2l3.95-10h1l3.93,10Zm-1.61-4.23-1.16-3.1c-.15-.39-.31-.87-.47-1.44a11.87,11.87,0,0,1-.43,1.44L321,67.56Z"/><path class="cls-1" d="M340.86,71.79h-1.33l-5.46-8.39H334c.07,1,.11,1.89.11,2.71v5.68h-1.08v-10h1.32l5.44,8.36h.06c0-.13,0-.52-.06-1.19s0-1.15,0-1.43V61.79h1.09Z"/><path class="cls-1" d="M350.77,66.79l2.67-5h1.26l-3.34,6.12v3.88h-1.18V68l-3.32-6.17h1.27Z"/></g></g></svg>