<svg width="168" height="26" viewBox="0 0 168 26" fill="none" xmlns="http://www.w3.org/2000/svg">
<path d="M30.6741 18.4998H27.7933V16.537H30.5696C31.2861 16.537 31.8856 16.4101 32.3682 16.1563C32.8558 15.9026 33.2215 15.5095 33.4653 14.9772C33.7091 14.4398 33.831 13.7582 33.831 12.9322C33.831 12.1063 33.7066 11.4296 33.4579 10.9022C33.2141 10.3699 32.8509 9.97684 32.3682 9.72309C31.8906 9.46934 31.296 9.34247 30.5845 9.34247H27.741V7.37964H30.7189C31.8334 7.37964 32.7912 7.60354 33.5922 8.05133C34.3982 8.49415 35.0177 9.13101 35.4505 9.96192C35.8834 10.7878 36.0998 11.7779 36.0998 12.9322C36.0998 14.0865 35.8834 15.0816 35.4505 15.9175C35.0177 16.7484 34.3957 17.3878 33.5847 17.8356C32.7737 18.2784 31.8035 18.4998 30.6741 18.4998ZM29.0471 7.37964V18.4998H26.7634V7.37964H29.0471ZM41.4119 18.664C40.566 18.664 39.8346 18.4898 39.2177 18.1416C38.6007 17.7933 38.1281 17.2982 37.7997 16.6564C37.4713 16.0145 37.3071 15.2583 37.3071 14.3876C37.3071 13.5318 37.4713 12.7805 37.7997 12.1337C38.1281 11.4869 38.5908 10.9843 39.1878 10.6261C39.7899 10.2629 40.4939 10.0813 41.2999 10.0813C41.8472 10.0813 42.3572 10.1684 42.8299 10.3425C43.3075 10.5166 43.723 10.7803 44.0762 11.1336C44.4345 11.4819 44.7131 11.9197 44.9121 12.4471C45.1111 12.9745 45.2107 13.5915 45.2107 14.298V14.9249H38.2101V13.5218H44.121L43.0836 13.895C43.0836 13.4621 43.0165 13.0865 42.8821 12.768C42.7478 12.4496 42.5488 12.2033 42.2851 12.0292C42.0263 11.8501 41.7054 11.7605 41.3223 11.7605C40.9342 11.7605 40.6058 11.8501 40.3372 12.0292C40.0685 12.2083 39.862 12.4521 39.7177 12.7606C39.5784 13.0641 39.5087 13.4099 39.5087 13.798V14.7906C39.5087 15.2682 39.5884 15.6712 39.7476 15.9996C39.9118 16.323 40.1381 16.5668 40.4267 16.731C40.7203 16.8952 41.0611 16.9773 41.4492 16.9773C41.7129 16.9773 41.9517 16.94 42.1657 16.8654C42.3796 16.7907 42.5637 16.6813 42.7179 16.537C42.8722 16.3927 42.9891 16.2136 43.0687 15.9996L45.0912 16.3429C44.9569 16.8106 44.7231 17.2186 44.3897 17.5669C44.0563 17.9152 43.6384 18.1863 43.1359 18.3804C42.6334 18.5695 42.0587 18.664 41.4119 18.664ZM48.724 18.4998L45.6641 10.1858H48.0374L49.433 14.4921C49.6022 15.0244 49.749 15.5643 49.8734 16.1116C50.0027 16.6589 50.1346 17.2236 50.2689 17.8057H49.7838C49.9132 17.2236 50.0401 16.6589 50.1644 16.1116C50.2938 15.5643 50.4406 15.0244 50.6048 14.4921L51.9855 10.1858H54.3364L51.269 18.4998H48.724ZM58.917 18.664C58.0712 18.664 57.3398 18.4898 56.7228 18.1416C56.1059 17.7933 55.6332 17.2982 55.3048 16.6564C54.9764 16.0145 54.8122 15.2583 54.8122 14.3876C54.8122 13.5318 54.9764 12.7805 55.3048 12.1337C55.6332 11.4869 56.0959 10.9843 56.693 10.6261C57.295 10.2629 57.999 10.0813 58.8051 10.0813C59.3524 10.0813 59.8623 10.1684 60.335 10.3425C60.8127 10.5166 61.2281 10.7803 61.5814 11.1336C61.9396 11.4819 62.2182 11.9197 62.4173 12.4471C62.6163 12.9745 62.7158 13.5915 62.7158 14.298V14.9249H55.7153V13.5218H61.6262L60.5888 13.895C60.5888 13.4621 60.5216 13.0865 60.3873 12.768C60.2529 12.4496 60.0539 12.2033 59.7902 12.0292C59.5315 11.8501 59.2106 11.7605 58.8274 11.7605C58.4394 11.7605 58.111 11.8501 57.8423 12.0292C57.5736 12.2083 57.3671 12.4521 57.2229 12.7606C57.0835 13.0641 57.0139 13.4099 57.0139 13.798V14.7906C57.0139 15.2682 57.0935 15.6712 57.2527 15.9996C57.4169 16.323 57.6433 16.5668 57.9319 16.731C58.2254 16.8952 58.5662 16.9773 58.9543 16.9773C59.218 16.9773 59.4568 16.94 59.6708 16.8654C59.8847 16.7907 60.0688 16.6813 60.2231 16.537C60.3773 16.3927 60.4942 16.2136 60.5738 15.9996L62.5964 16.3429C62.462 16.8106 62.2282 17.2186 61.8948 17.5669C61.5615 17.9152 61.1435 18.1863 60.641 18.3804C60.1385 18.5695 59.5638 18.664 58.917 18.664ZM66.3934 7.37964V18.4998H64.1544V7.37964H66.3934ZM71.9293 18.664C71.0934 18.664 70.3695 18.4849 69.7575 18.1266C69.1505 17.7684 68.6803 17.2684 68.3469 16.6265C68.0185 15.9797 67.8544 15.2309 67.8544 14.3801C67.8544 13.5193 68.0185 12.768 68.3469 12.1262C68.6803 11.4794 69.1505 10.9769 69.7575 10.6186C70.3695 10.2604 71.0934 10.0813 71.9293 10.0813C72.7652 10.0813 73.4866 10.2604 74.0936 10.6186C74.7056 10.9769 75.1758 11.4794 75.5042 12.1262C75.8375 12.768 76.0042 13.5193 76.0042 14.3801C76.0042 15.2309 75.8375 15.9797 75.5042 16.6265C75.1758 17.2684 74.7056 17.7684 74.0936 18.1266C73.4866 18.4849 72.7652 18.664 71.9293 18.664ZM71.9293 16.9027C72.3223 16.9027 72.6532 16.7932 72.9219 16.5743C73.1906 16.3554 73.3921 16.0544 73.5264 15.6712C73.6607 15.2881 73.7279 14.8553 73.7279 14.3726C73.7279 13.8801 73.6607 13.4447 73.5264 13.0666C73.3921 12.6835 73.1906 12.3849 72.9219 12.171C72.6532 11.9521 72.3223 11.8426 71.9293 11.8426C71.5312 11.8426 71.1979 11.9521 70.9292 12.171C70.6655 12.3849 70.4665 12.6835 70.3321 13.0666C70.1978 13.4447 70.1306 13.8801 70.1306 14.3726C70.1306 14.8553 70.1978 15.2881 70.3321 15.6712C70.4665 16.0544 70.6655 16.3554 70.9292 16.5743C71.1979 16.7932 71.5312 16.9027 71.9293 16.9027ZM77.4652 21.6194V10.1858H79.6668V11.5665H79.7713C79.8758 11.3426 80.0251 11.1162 80.2191 10.8873C80.4132 10.6584 80.6669 10.4669 80.9804 10.3126C81.2938 10.1584 81.6819 10.0813 82.1446 10.0813C82.7666 10.0813 83.3313 10.243 83.8388 10.5664C84.3513 10.8848 84.7592 11.3625 85.0628 11.9993C85.3712 12.6312 85.5255 13.4173 85.5255 14.3577C85.5255 15.2782 85.3762 16.0568 85.0777 16.6937C84.7841 17.3306 84.3811 17.8157 83.8686 18.149C83.3562 18.4774 82.7765 18.6416 82.1297 18.6416C81.6869 18.6416 81.3088 18.567 80.9953 18.4177C80.6818 18.2684 80.4256 18.0819 80.2266 17.858C80.0325 17.6341 79.8808 17.4077 79.7713 17.1788H79.7042V21.6194H77.4652ZM81.4506 16.8504C81.8386 16.8504 82.1645 16.7435 82.4282 16.5295C82.6919 16.3156 82.891 16.022 83.0253 15.6488C83.1646 15.2707 83.2343 14.8378 83.2343 14.3502C83.2343 13.8627 83.1671 13.4323 83.0328 13.0591C82.8984 12.686 82.6969 12.3949 82.4282 12.1859C82.1645 11.9769 81.8386 11.8725 81.4506 11.8725C81.0674 11.8725 80.7415 11.9745 80.4729 12.1785C80.2042 12.3824 80.0002 12.671 79.8609 13.0442C79.7216 13.4124 79.6519 13.8477 79.6519 14.3502C79.6519 14.8478 79.7216 15.2856 79.8609 15.6638C80.0002 16.0369 80.2042 16.328 80.4729 16.537C80.7465 16.7459 81.0724 16.8504 81.4506 16.8504ZM90.7479 18.664C89.9021 18.664 89.1707 18.4898 88.5538 18.1416C87.9368 17.7933 87.4641 17.2982 87.1357 16.6564C86.8074 16.0145 86.6432 15.2583 86.6432 14.3876C86.6432 13.5318 86.8074 12.7805 87.1357 12.1337C87.4641 11.4869 87.9268 10.9843 88.5239 10.6261C89.1259 10.2629 89.83 10.0813 90.636 10.0813C91.1833 10.0813 91.6933 10.1684 92.1659 10.3425C92.6436 10.5166 93.059 10.7803 93.4123 11.1336C93.7705 11.4819 94.0492 11.9197 94.2482 12.4471C94.4472 12.9745 94.5467 13.5915 94.5467 14.298V14.9249H87.5462V13.5218H93.4571L92.4197 13.895C92.4197 13.4621 92.3525 13.0865 92.2182 12.768C92.0839 12.4496 91.8848 12.2033 91.6211 12.0292C91.3624 11.8501 91.0415 11.7605 90.6584 11.7605C90.2703 11.7605 89.9419 11.8501 89.6732 12.0292C89.4046 12.2083 89.1981 12.4521 89.0538 12.7606C88.9145 13.0641 88.8448 13.4099 88.8448 13.798V14.7906C88.8448 15.2682 88.9244 15.6712 89.0836 15.9996C89.2478 16.323 89.4742 16.5668 89.7628 16.731C90.0563 16.8952 90.3972 16.9773 90.7853 16.9773C91.049 16.9773 91.2878 16.94 91.5017 16.8654C91.7157 16.7907 91.8998 16.6813 92.054 16.537C92.2082 16.3927 92.3252 16.2136 92.4048 15.9996L94.4273 16.3429C94.293 16.8106 94.0591 17.2186 93.7258 17.5669C93.3924 17.9152 92.9745 18.1863 92.4719 18.3804C91.9694 18.5695 91.3947 18.664 90.7479 18.664ZM95.9853 18.4998V10.1858H98.1497V11.6336H98.2392C98.3885 11.1212 98.6397 10.7356 98.993 10.4768C99.3512 10.2131 99.7667 10.0813 100.239 10.0813C100.359 10.0813 100.483 10.0888 100.613 10.1037C100.742 10.1136 100.856 10.131 100.956 10.1559V12.1411C100.861 12.1113 100.719 12.0864 100.53 12.0665C100.341 12.0466 100.162 12.0367 99.9931 12.0367C99.6547 12.0367 99.3512 12.1113 99.0826 12.2605C98.8139 12.4048 98.6024 12.6088 98.4482 12.8725C98.2989 13.1313 98.2243 13.4348 98.2243 13.783V18.4998H95.9853ZM105.676 18.4998V7.37964H110.02C110.861 7.37964 111.577 7.53886 112.169 7.85729C112.767 8.17572 113.219 8.61854 113.528 9.18574C113.841 9.74797 113.998 10.3947 113.998 11.1261C113.998 11.8625 113.839 12.5118 113.52 13.074C113.207 13.6313 112.749 14.0691 112.147 14.3876C111.545 14.701 110.819 14.8577 109.968 14.8577H107.162V13.0069H109.625C110.082 13.0069 110.46 12.9273 110.759 12.768C111.062 12.6088 111.289 12.3874 111.438 12.1038C111.587 11.8202 111.662 11.4943 111.662 11.1261C111.662 10.753 111.587 10.4271 111.438 10.1485C111.289 9.86987 111.062 9.65344 110.759 9.4992C110.46 9.33998 110.08 9.26037 109.617 9.26037H107.96V18.4998H105.676ZM117.683 7.37964V18.4998H115.444V7.37964H117.683ZM121.823 18.6565C121.296 18.6565 120.823 18.5645 120.405 18.3804C119.987 18.1963 119.656 17.9202 119.413 17.552C119.174 17.1838 119.054 16.7236 119.054 16.1713C119.054 15.7086 119.139 15.323 119.308 15.0145C119.477 14.701 119.709 14.4498 120.002 14.2607C120.301 14.0716 120.637 13.9273 121.01 13.8278C121.388 13.7283 121.783 13.6587 122.196 13.6189C122.679 13.5691 123.067 13.5243 123.361 13.4845C123.654 13.4397 123.868 13.3726 124.003 13.283C124.142 13.1935 124.212 13.0591 124.212 12.88V12.8352C124.212 12.6014 124.162 12.4048 124.062 12.2456C123.963 12.0814 123.816 11.9546 123.622 11.865C123.428 11.7754 123.189 11.7307 122.905 11.7307C122.622 11.7307 122.373 11.7754 122.159 11.865C121.945 11.9496 121.771 12.0665 121.637 12.2158C121.502 12.3601 121.405 12.5218 121.346 12.7009L119.293 12.3874C119.428 11.8948 119.659 11.4794 119.987 11.1411C120.321 10.7978 120.736 10.5365 121.234 10.3574C121.731 10.1733 122.293 10.0813 122.92 10.0813C123.373 10.0813 123.811 10.136 124.234 10.2455C124.657 10.35 125.035 10.5166 125.368 10.7455C125.702 10.9694 125.965 11.2605 126.159 11.6187C126.353 11.972 126.45 12.3999 126.45 12.9024V18.4998H124.323V17.343H124.256C124.117 17.6017 123.935 17.8306 123.711 18.0296C123.493 18.2286 123.226 18.3829 122.913 18.4923C122.599 18.6018 122.236 18.6565 121.823 18.6565ZM122.458 17.0967C122.806 17.0967 123.112 17.0271 123.376 16.8877C123.644 16.7435 123.853 16.5544 124.003 16.3205C124.157 16.0817 124.234 15.8155 124.234 15.522V14.6264C124.164 14.6712 124.062 14.7135 123.928 14.7533C123.799 14.7931 123.652 14.8304 123.488 14.8652C123.328 14.8951 123.169 14.9224 123.01 14.9473C122.851 14.9722 122.706 14.9921 122.577 15.007C122.303 15.0468 122.062 15.1115 121.853 15.2011C121.649 15.2856 121.487 15.4026 121.368 15.5518C121.254 15.7011 121.196 15.8877 121.196 16.1116C121.196 16.3255 121.251 16.5046 121.361 16.6489C121.47 16.7932 121.617 16.9052 121.801 16.9848C121.99 17.0594 122.209 17.0967 122.458 17.0967ZM132.434 10.1858V11.8948H127.471V10.1858H132.434ZM128.635 8.19313H130.867V16.0593C130.867 16.323 130.927 16.5171 131.046 16.6415C131.165 16.7658 131.36 16.828 131.628 16.828C131.718 16.828 131.84 16.8181 131.994 16.7982C132.148 16.7783 132.268 16.7609 132.352 16.7459L132.651 18.4252C132.407 18.4948 132.163 18.5421 131.919 18.567C131.675 18.5968 131.439 18.6117 131.21 18.6117C130.374 18.6117 129.735 18.4102 129.292 18.0072C128.854 17.6042 128.635 17.0246 128.635 16.2683V8.19313ZM137.918 10.1858V11.8948H132.485V10.1858H137.918ZM133.955 18.4998V9.52159C133.955 8.93448 134.069 8.44688 134.298 8.05879C134.532 7.67071 134.853 7.37964 135.261 7.1856C135.669 6.99155 136.132 6.89453 136.649 6.89453C136.992 6.89453 137.308 6.9219 137.597 6.97663C137.886 7.02638 138.097 7.07116 138.231 7.11097L137.851 8.80512C137.761 8.77526 137.652 8.75039 137.522 8.73048C137.393 8.70561 137.254 8.69317 137.104 8.69317C136.766 8.69317 136.527 8.77278 136.388 8.93199C136.249 9.09121 136.179 9.32008 136.179 9.61861V18.4998H133.955ZM142.678 18.664C141.842 18.664 141.118 18.4849 140.506 18.1266C139.899 17.7684 139.429 17.2684 139.095 16.6265C138.767 15.9797 138.603 15.2309 138.603 14.3801C138.603 13.5193 138.767 12.768 139.095 12.1262C139.429 11.4794 139.899 10.9769 140.506 10.6186C141.118 10.2604 141.842 10.0813 142.678 10.0813C143.514 10.0813 144.235 10.2604 144.842 10.6186C145.454 10.9769 145.924 11.4794 146.253 12.1262C146.586 12.768 146.753 13.5193 146.753 14.3801C146.753 15.2309 146.586 15.9797 146.253 16.6265C145.924 17.2684 145.454 17.7684 144.842 18.1266C144.235 18.4849 143.514 18.664 142.678 18.664ZM142.678 16.9027C143.071 16.9027 143.402 16.7932 143.67 16.5743C143.939 16.3554 144.14 16.0544 144.275 15.6712C144.409 15.2881 144.476 14.8553 144.476 14.3726C144.476 13.8801 144.409 13.4447 144.275 13.0666C144.14 12.6835 143.939 12.3849 143.67 12.171C143.402 11.9521 143.071 11.8426 142.678 11.8426C142.28 11.8426 141.946 11.9521 141.678 12.171C141.414 12.3849 141.215 12.6835 141.08 13.0666C140.946 13.4447 140.879 13.8801 140.879 14.3726C140.879 14.8553 140.946 15.2881 141.08 15.6712C141.215 16.0544 141.414 16.3554 141.678 16.5743C141.946 16.7932 142.28 16.9027 142.678 16.9027ZM148.214 18.4998V10.1858H150.378V11.6336H150.467C150.617 11.1212 150.868 10.7356 151.221 10.4768C151.579 10.2131 151.995 10.0813 152.468 10.0813C152.587 10.0813 152.711 10.0888 152.841 10.1037C152.97 10.1136 153.085 10.131 153.184 10.1559V12.1411C153.09 12.1113 152.948 12.0864 152.759 12.0665C152.57 12.0466 152.39 12.0367 152.221 12.0367C151.883 12.0367 151.579 12.1113 151.311 12.2605C151.042 12.4048 150.831 12.6088 150.676 12.8725C150.527 13.1313 150.453 13.4348 150.453 13.783V18.4998H148.214ZM154.436 18.4998V10.1858H156.518L156.623 12.2456H156.459C156.588 11.7331 156.777 11.3177 157.026 10.9993C157.28 10.6808 157.576 10.4445 157.914 10.2903C158.252 10.136 158.608 10.0589 158.981 10.0589C159.583 10.0589 160.071 10.2505 160.444 10.6336C160.817 11.0117 161.088 11.5913 161.257 12.3725H160.996C161.121 11.8451 161.322 11.4122 161.601 11.0739C161.879 10.7306 162.21 10.4768 162.593 10.3126C162.976 10.1435 163.382 10.0589 163.81 10.0589C164.317 10.0589 164.77 10.1708 165.168 10.3947C165.571 10.6186 165.887 10.942 166.116 11.365C166.35 11.7829 166.467 12.2954 166.467 12.9024V18.4998H164.228V13.3278C164.228 12.8551 164.101 12.5043 163.847 12.2755C163.593 12.0416 163.28 11.9247 162.907 11.9247C162.628 11.9247 162.384 11.9869 162.175 12.1113C161.971 12.2357 161.812 12.4073 161.698 12.6262C161.588 12.8452 161.534 13.1014 161.534 13.395V18.4998H159.369V13.2681C159.369 12.8601 159.247 12.5342 159.004 12.2904C158.765 12.0466 158.454 11.9247 158.071 11.9247C157.807 11.9247 157.568 11.9869 157.354 12.1113C157.145 12.2307 156.979 12.4048 156.854 12.6337C156.735 12.8626 156.675 13.1462 156.675 13.4845V18.4998H154.436Z" fill="#F9F9F9"/>
<mask id="mask0_5016_164" style="mask-type:luminance" maskUnits="userSpaceOnUse" x="0" y="2" width="20" height="21">
<path d="M19.6517 2.68359H0V22.3353H19.6517V2.68359Z" fill="white"/>
</mask>
<g mask="url(#mask0_5016_164)">
<path d="M11.6544 11.0005L18.8092 2.68359H17.1138L10.9012 9.90503L5.9393 2.68359H0.216309L7.71971 13.6037L0.216309 22.3252H1.91187L8.47245 14.6991L13.7126 22.3252H19.4356L11.6544 11.0005ZM9.3321 13.6999L8.57185 12.6125L2.5228 3.95999H5.12708L10.0087 10.9428L10.769 12.0302L17.1146 21.1069H14.5103L9.3321 13.6999Z" fill="#F9F9F9"/>
</g>
</svg>
